:SAMPLES-PER-SECOND 24
:FULLY-SPECIFIED
:DEGREES
205
root  7.28689 42.0539 28.9852 5.49658 57.9231 -3.16437
RightUpLeg  -15.2265 -4.16064 -2.81675
RightLeg  17.1999 -2.96573 -1.16036
RightFoot  10.557 -1.19567 6.5709
RightToes  -2.08645e-008 3.77894e-005 6.81332e-007
Spine  -2.64863 -4.68981 -5.53484
Spine1  5.06476 -5.41087 4.76268
HEad  -23.8704 -24.2821 3.43785
LeftShoulder1  7.47098 -13.3663 -38.1709
LeftArm  2.77642 33.7567 -29.1445
LeftForeArm  172.425 -65.856 -158.425
LeftHand  -0.0735341 -4.04602 1.16075
RightShoulder  3.79634 6.34592 32.6594
RightArm  15.3434 -27.7763 33.6867
RightForeArm  151.157 74.1916 142.913
RightHand  -0.0168112 9.33414 -0.530604
LeftUpLeg  -5.15492 7.46628 14.6685
LeftLeg  12.2217 5.42966 1.81224
LeftFoot  17.455 5.38248 -21.1319
LeftToes  1.24767e-006 1.47042e-008 1.32732e-009
206
root  7.25581 42.7543 28.6962 6.7616 58.0261 -1.71582
RightUpLeg  -15.3209 -4.09935 -3.9913
RightLeg  15.1736 -4.12767 -1.48554
RightFoot  15.6864 -1.44285 6.4686
RightToes  -2.08645e-008 3.77894e-005 6.81332e-007
Spine  -2.30006 -4.45963 -7.84788
Spine1  4.88963 -5.45089 6.46046
HEad  -24.0653 -24.6962 4.34735
LeftShoulder1  7.25999 -13.2927 -37.1463
LeftArm  4.9117 35.3866 -28.2815
LeftForeArm  171.35 -65.444 -158.697
LeftHand  0.0693921 -4.07252 -0.583723
RightShoulder  3.80999 6.39652 32.6009
RightArm  16.9158 -27.1386 32.1706
RightForeArm  152.094 72.9701 145.775
RightHand  -0.0577571 8.97608 -0.859844
LeftUpLeg  -5.22926 7.48795 13.664
LeftLeg  11.3594 3.60145 1.22262
LeftFoot  19.1527 6.00451 -22.256
LeftToes  1.24767e-006 1.47042e-008 1.32732e-009
207
root  7.20201 42.8103 28.3561 6.42126 58.1258 -1.65936
RightUpLeg  -15.5435 -1.95612 -4.40481
RightLeg  15.2876 -4.36358 -1.87162
RightFoot  15.9037 -1.21628 5.47196
RightToes  -2.08645e-008 3.77894e-005 6.81332e-007
Spine  -1.74576 -4.27343 -8.25748
Spine1  4.98203 -5.31227 6.48052
HEad  -24.6499 -25.0552 5.16682
LeftShoulder1  7.03105 -13.1883 -36.0756
LeftArm  7.84907 34.7656 -26.6965
LeftForeArm  167.696 -65.2053 -158.525
LeftHand  -0.010244 -3.70884 0.388617
RightShoulder  3.69478 6.27075 31.9141
RightArm  17.6573 -25.5823 32.08
RightForeArm  152.049 72.8503 146.011
RightHand  0.0448904 8.91201 -0.0291648
LeftUpLeg  -5.32082 5.05035 13.4501
LeftLeg  12.7322 5.10674 2.01287
LeftFoot  16.4307 4.79139 -19.6316
LeftToes  1.24767e-006 1.47042e-008 1.32732e-009
208
root  7.18079 42.2226 27.9999 5.42883 58.4268 -2.45197
RightUpLeg  -15.9281 1.65577 -4.95324
RightLeg  17.036 -3.63196 -1.72023
RightFoot  12.2058 -1.17704 6.07046
RightToes  -2.08645e-008 3.77894e-005 6.81332e-007
Spine  -1.61526 -4.39719 -7.63519
Spine1  5.3528 -5.39725 5.92114
HEad  -25.3747 -25.2841 5.75186
LeftShoulder1  6.83549 -13.0667 -35.2235
LeftArm  9.32784 33.2898 -24.7257
LeftForeArm  166.714 -64.5151 -159.049
LeftHand  -0.0685374 -3.33142 1.15466
RightShoulder  3.62851 6.20811 31.4725
RightArm  17.617 -23.4882 32.3238
RightForeArm  150.474 73.6509 144.045
RightHand  0.0347348 8.758 -0.107404
LeftUpLeg  -5.88525 1.08724 13.8552
LeftLeg  15.4574 8.95561 3.43302
LeftFoot  14.9933 3.75492 -16.3437
LeftToes  1.24767e-006 1.47042e-008 1.32732e-009
209
root  7.15701 41.008 27.6702 4.7594 59.1916 -2.65253
RightUpLeg  -15.9589 3.49583 -5.72367
RightLeg  20.0958 -3.84137 -1.76778
RightFoot  3.49961 -0.802392 6.30205
RightToes  -2.08645e-008 3.77894e-005 6.81332e-007
Spine  -1.04222 -4.63964 -8.35026
Spine1  5.28887 -5.90222 6.96046
HEad  -26.0665 -25.4295 5.64152
LeftShoulder1  6.79642 -13.0146 -35.1198
LeftArm  9.64844 30.4916 -22.7308
LeftForeArm  165.843 -64.5415 -158.951
LeftHand  -0.0849936 -3.31438 1.37931
RightShoulder  3.66533 6.27889 31.5787
RightArm  17.3361 -21.2943 32.0433
RightForeArm  146.056 74.9199 140.125
RightHand  0.0486437 9.01614 -0.00197297
LeftUpLeg  -6.29066 -2.19677 14.0501
LeftLeg  19.4318 10.6079 4.42351
LeftFoot  9.39259 3.22368 -17.9167
LeftToes  1.24767e-006 1.47042e-008 1.32732e-009
210
root  7.14029 39.541 27.1608 2.43286 59.0691 -4.33295
RightUpLeg  -16.5729 3.12577 -5.28784
RightLeg  24.3618 -4.10885 -2.25149
RightFoot  -5.97755 -0.27116 4.75513
RightToes  -2.08645e-008 3.77894e-005 6.81332e-007
Spine  0.166297 -4.16371 -6.34923
Spine1  4.99556 -5.39426 6.23935
HEad  -27.5848 -26.2046 5.38248
LeftShoulder1  7.0017 -13.0779 -36.1794
LeftArm  9.5516 24.328 -21.048
LeftForeArm  163.922 -67.1893 -156.088
LeftHand  -0.236427 -3.50536 3.32982
RightShoulder  3.68365 6.2796 31.7651
RightArm  16.1038 -19.6908 32.0285
RightForeArm  141.588 76.2866 135.079
RightHand  -0.127104 9.20295 -1.4033
LeftUpLeg  -5.44242 -1.93665 14.5217
LeftLeg  22.8904 9.44249 4.67065
LeftFoot  -3.91634 1.40422 -21.4768
LeftToes  1.24767e-006 1.47042e-008 1.32732e-009
211
root  7.13814 38.5595 26.4374 -0.118164 57.5759 -6.31415
RightUpLeg  -18.137 4.23723 -4.89895
RightLeg  28.1888 -4.7295 -2.97292
RightFoot  -10.6759 -0.094767 3.84103
RightToes  -2.08645e-008 3.77894e-005 6.81332e-007
Spine  1.00812 -3.33877 -2.6082
Spine1  5.8185 -4.18021 3.49527
HEad  -31.1129 -26.6961 6.11291
LeftShoulder1  7.51148 -13.4177 -38.2712
LeftArm  6.62464 18.5203 -20.9449
LeftForeArm  164.145 -71.131 -150.926
LeftHand  -0.365466 -3.40092 5.07765
RightShoulder  3.75115 6.31961 32.3019
RightArm  13.5332 -19.125 32.5188
RightForeArm  139.4 77.4856 130.032
RightHand  -0.25867 9.40194 -2.4229
LeftUpLeg  -4.5658 -1.06189 14.5417
LeftLeg  25.1141 9.62963 5.22452
LeftFoot  -14.227 -0.449752 -21.0021
LeftToes  1.24767e-006 1.47042e-008 1.32732e-009
212
root  7.13596 38.6522 25.6796 0.445923 56.8321 -5.54858
RightUpLeg  -18.8583 5.98254 -6.41854
RightLeg  27.8172 -5.65485 -3.44454
RightFoot  -8.66117 -0.177852 4.9195
RightToes  -2.08645e-008 3.77894e-005 6.81332e-007
Spine  1.15219 -3.36757 -2.91046
Spine1  6.86553 -4.32105 3.46502
HEad  -34.415 -25.7205 6.91293
LeftShoulder1  7.97633 -13.7842 -39.9403
LeftArm  1.3302 18.7457 -23.5531
LeftForeArm  166.163 -73.0516 -147.913
LeftHand  -0.329956 -3.38565 4.61233
RightShoulder  3.87685 6.45167 33.0593
RightArm  11.4096 -20.4202 33.6672
RightForeArm  137.439 78.286 125.836
RightHand  -0.295812 9.41288 -2.71219
LeftUpLeg  -4.8055 -1.02698 12.7278
LeftLeg  24.9896 11.285 6.00191
LeftFoot  -13.9002 -0.344232 -18.7852
LeftToes  1.24767e-006 1.47042e-008 1.32732e-009
213
root  7.19225 39.7649 24.9255 3.25452 57.0942 -3.77869
RightUpLeg  -18.0956 6.0886 -8.77835
RightLeg  21.1453 -5.98662 -2.712
RightFoot  0.226921 -0.746277 7.22471
RightToes  -2.08645e-008 3.77894e-005 6.81332e-007
Spine  0.691174 -4.14828 -4.59954
Spine1  5.87625 -5.33616 5.02365
HEad  -33.6995 -24.6562 6.21083
LeftShoulder1  7.8955 -13.7059 -39.6894
LeftArm  -1.83536 24.1197 -28.329
LeftForeArm  166.742 -72.2264 -149.488
LeftHand  -0.271756 -2.9599 4.01487
RightShoulder  3.90696 6.48216 33.241
RightArm  11.3829 -24.7021 34.9588
RightForeArm  137.612 78.0877 126.879
RightHand  -0.213106 8.94888 -2.10887
LeftUpLeg  -5.01163 1.31702 10.866
LeftLeg  19.6724 9.81888 4.33268
LeftFoot  -6.63262 0.819292 -18.5962
LeftToes  1.24767e-006 1.47042e-008 1.32732e-009
